<svg xmlns="http://www.w3.org/2000/svg" width="24" height="24" viewBox="0 0 24 24" fill="none" stroke="currentColor" stroke-width="2" stroke-linecap="round" stroke-linejoin="round" class="feather feather-react"><path d="M22.5 10c-3.1-3.1-8.3-3.1-11.4 0s-3.1 8.3 0 11.4 8.3 3.1 11.4 0-3.1-8.3-11.4-8.3z"></path><path d="M16 8.5c-1.3-1.3-3.6-1.3-5 0s-1.3 3.6 0 5 3.6 1.3 5 0 1.3-3.6 0-5z"></path><path d="M12 2v2M12 20v2M2 12h2M20 12h2M5.6 5.6l1.4 1.4M17 17l1.4 1.4M5.6 18.4l1.4-1.4M17 7l1.4-1.4"></path></svg>